<svg xmlns="http://www.w3.org/2000/svg" viewBox="0 0 120 120">
  <!-- Background -->
  <circle cx="60" cy="60" r="60" fill="#fef3c7"/>

  <!-- Body / shirt collar -->
  <ellipse cx="60" cy="114" rx="44" ry="28" fill="#1e293b"/>
  <rect x="50" y="88" width="20" height="22" fill="#1e293b"/>

  <!-- Shirt collar white -->
  <polygon points="60,88 52,100 60,96 68,100" fill="white"/>

  <!-- Neck -->
  <rect x="53" y="76" width="14" height="16" rx="6" fill="#6b3a1f"/>

  <!-- Head -->
  <circle cx="60" cy="66" r="27" fill="#6b3a1f"/>

  <!-- Ears -->
  <ellipse cx="33" cy="67" rx="5" ry="6" fill="#6b3a1f"/>
  <ellipse cx="87" cy="67" rx="5" ry="6" fill="#6b3a1f"/>

  <!-- Hair – short, close cut -->
  <ellipse cx="60" cy="44" rx="27" ry="15" fill="#1a0d06"/>
  <!-- Hair top -->
  <ellipse cx="60" cy="40" rx="22" ry="10" fill="#1a0d06"/>

  <!-- Eyebrows -->
  <path d="M46 57 Q51 54 56 57" fill="none" stroke="#1a0d06" stroke-width="2.2" stroke-linecap="round"/>
  <path d="M64 57 Q69 54 74 57" fill="none" stroke="#1a0d06" stroke-width="2.2" stroke-linecap="round"/>

  <!-- Eyes -->
  <ellipse cx="51" cy="63" rx="4.5" ry="4" fill="white"/>
  <ellipse cx="69" cy="63" rx="4.5" ry="4" fill="white"/>
  <circle cx="51" cy="63" r="2.2" fill="#1a0d06"/>
  <circle cx="69" cy="63" r="2.2" fill="#1a0d06"/>
  <!-- Eye highlights -->
  <circle cx="52" cy="62" r="0.8" fill="white"/>
  <circle cx="70" cy="62" r="0.8" fill="white"/>

  <!-- Nose -->
  <path d="M57 70 Q60 76 63 70" fill="none" stroke="#4a2010" stroke-width="1.5" stroke-linecap="round"/>
  <ellipse cx="57" cy="73" rx="2" ry="1.2" fill="#4a2010"/>
  <ellipse cx="63" cy="73" rx="2" ry="1.2" fill="#4a2010"/>

  <!-- Smile / subtle grin -->
  <path d="M50 78 Q60 86 70 78" fill="none" stroke="#4a2010" stroke-width="2.2" stroke-linecap="round"/>

  <!-- Beard / jawline fade -->
  <ellipse cx="60" cy="86" rx="21" ry="8" fill="#4a2010" opacity="0.25"/>
</svg>
