<svg xmlns="http://www.w3.org/2000/svg" viewBox="0 0 120 120">
  <!-- Background -->
  <circle cx="60" cy="60" r="60" fill="#d1fae5"/>

  <!-- Body / top -->
  <ellipse cx="60" cy="113" rx="43" ry="28" fill="#e11d48"/>
  <rect x="49" y="88" width="22" height="22" fill="#e11d48"/>

  <!-- Neck -->
  <rect x="53" y="76" width="14" height="16" rx="6" fill="#a0623a"/>

  <!-- Head -->
  <circle cx="60" cy="66" r="27" fill="#a0623a"/>

  <!-- Ears -->
  <ellipse cx="33" cy="67" rx="5" ry="6" fill="#a0623a"/>
  <ellipse cx="87" cy="67" rx="5" ry="6" fill="#a0623a"/>

  <!-- Earrings – hoops -->
  <circle cx="33" cy="72" r="3" fill="none" stroke="#f59e0b" stroke-width="1.8"/>
  <circle cx="87" cy="72" r="3" fill="none" stroke="#f59e0b" stroke-width="1.8"/>

  <!-- Natural afro hair -->
  <circle cx="60" cy="44" r="30" fill="#1a0d06"/>
  <circle cx="36" cy="52" r="14" fill="#1a0d06"/>
  <circle cx="84" cy="52" r="14" fill="#1a0d06"/>
  <circle cx="60" cy="30" r="16" fill="#1a0d06"/>
  <circle cx="44" cy="36" r="13" fill="#1a0d06"/>
  <circle cx="76" cy="36" r="13" fill="#1a0d06"/>

  <!-- Hair texture dots -->
  <circle cx="50" cy="30" r="1.5" fill="#2d1b0e" opacity="0.5"/>
  <circle cx="60" cy="24" r="1.5" fill="#2d1b0e" opacity="0.5"/>
  <circle cx="70" cy="30" r="1.5" fill="#2d1b0e" opacity="0.5"/>
  <circle cx="38" cy="42" r="1.5" fill="#2d1b0e" opacity="0.5"/>
  <circle cx="82" cy="42" r="1.5" fill="#2d1b0e" opacity="0.5"/>

  <!-- Eyebrows -->
  <path d="M46 58 Q51 55 56 58" fill="none" stroke="#1a0d06" stroke-width="2" stroke-linecap="round"/>
  <path d="M64 58 Q69 55 74 58" fill="none" stroke="#1a0d06" stroke-width="2" stroke-linecap="round"/>

  <!-- Eyes -->
  <ellipse cx="51" cy="64" rx="4.5" ry="4" fill="white"/>
  <ellipse cx="69" cy="64" rx="4.5" ry="4" fill="white"/>
  <circle cx="51" cy="64" r="2.2" fill="#1a0d06"/>
  <circle cx="69" cy="64" r="2.2" fill="#1a0d06"/>
  <!-- Eye highlights -->
  <circle cx="52" cy="63" r="0.8" fill="white"/>
  <circle cx="70" cy="63" r="0.8" fill="white"/>

  <!-- Nose -->
  <path d="M57 71 Q60 76 63 71" fill="none" stroke="#7a4020" stroke-width="1.5" stroke-linecap="round"/>

  <!-- Big warm smile -->
  <path d="M49 78 Q60 88 71 78" fill="none" stroke="#7a4020" stroke-width="2.2" stroke-linecap="round"/>

  <!-- Dimples -->
  <circle cx="48" cy="79" r="1.5" fill="#7a4020" opacity="0.35"/>
  <circle cx="72" cy="79" r="1.5" fill="#7a4020" opacity="0.35"/>
</svg>
