<svg xmlns="http://www.w3.org/2000/svg" viewBox="0 0 120 120">
  <!-- Background -->
  <circle cx="60" cy="60" r="60" fill="#dbeafe"/>

  <!-- Body / shirt -->
  <ellipse cx="60" cy="112" rx="42" ry="28" fill="#1e40af"/>
  <rect x="50" y="88" width="20" height="20" fill="#1e40af"/>

  <!-- Neck -->
  <rect x="53" y="76" width="14" height="16" rx="6" fill="#c8845a"/>

  <!-- Head -->
  <circle cx="60" cy="66" r="27" fill="#c8845a"/>

  <!-- Ears -->
  <ellipse cx="33" cy="67" rx="5" ry="6" fill="#c8845a"/>
  <ellipse cx="87" cy="67" rx="5" ry="6" fill="#c8845a"/>

  <!-- Earrings -->
  <circle cx="33" cy="73" r="2" fill="#f59e0b"/>
  <circle cx="87" cy="73" r="2" fill="#f59e0b"/>

  <!-- Hair – bun top -->
  <ellipse cx="60" cy="44" rx="27" ry="16" fill="#2d1b0e"/>
  <circle cx="60" cy="34" r="11" fill="#2d1b0e"/>

  <!-- Side hair wisps -->
  <ellipse cx="35" cy="58" rx="5" ry="10" fill="#2d1b0e"/>
  <ellipse cx="85" cy="58" rx="5" ry="10" fill="#2d1b0e"/>

  <!-- Glasses bridge -->
  <line x1="58" y1="63" x2="62" y2="63" stroke="#555" stroke-width="1.8"/>
  <!-- Left lens -->
  <rect x="44" y="57" width="13" height="9" rx="3.5" fill="rgba(200,230,255,0.35)" stroke="#444" stroke-width="1.8"/>
  <!-- Right lens -->
  <rect x="63" y="57" width="13" height="9" rx="3.5" fill="rgba(200,230,255,0.35)" stroke="#444" stroke-width="1.8"/>
  <!-- Temple arms -->
  <line x1="32" y1="61" x2="44" y2="61" stroke="#444" stroke-width="1.8" stroke-linecap="round"/>
  <line x1="76" y1="61" x2="88" y2="61" stroke="#444" stroke-width="1.8" stroke-linecap="round"/>

  <!-- Eyes behind glasses -->
  <circle cx="50.5" cy="62" r="2" fill="#2d1b0e"/>
  <circle cx="69.5" cy="62" r="2" fill="#2d1b0e"/>
  <!-- Eye highlights -->
  <circle cx="51.5" cy="61" r="0.7" fill="white"/>
  <circle cx="70.5" cy="61" r="0.7" fill="white"/>

  <!-- Nose -->
  <path d="M57 70 Q60 74 63 70" fill="none" stroke="#a05c38" stroke-width="1.3" stroke-linecap="round"/>

  <!-- Smile -->
  <path d="M51 76 Q60 84 69 76" fill="none" stroke="#a05c38" stroke-width="2" stroke-linecap="round"/>
</svg>
